<svg width="1200" height="800" viewBox="0 0 1200 800" xmlns="http://www.w3.org/2000/svg">
  <!-- Background -->
  <rect width="1200" height="800" fill="#f3f4f6"/>

  <!-- Mockup Border -->
  <rect x="50" y="50" width="1100" height="700" rx="12" fill="white" stroke="#e5e7eb" stroke-width="2"/>

  <!-- Window Header -->
  <rect x="50" y="50" width="1100" height="40" rx="12" fill="#1f2937"/>
  <rect x="50" y="78" width="1100" height="12" fill="#1f2937"/>

  <!-- Traffic Lights -->
  <circle cx="75" cy="70" r="6" fill="#ef4444"/>
  <circle cx="95" cy="70" r="6" fill="#f59e0b"/>
  <circle cx="115" cy="70" r="6" fill="#10b981"/>

  <!-- App Title -->
  <text x="600" y="75" text-anchor="middle" fill="white" font-family="system-ui" font-size="14" font-weight="600">
    ColorClip Pro
  </text>

  <!-- Palette Header -->
  <rect x="70" y="110" width="1060" height="50" rx="8" fill="#f9fafb"/>
  <text x="90" y="140" fill="#374151" font-family="system-ui" font-size="16" font-weight="600">
    My Color Palette
  </text>

  <!-- Color Swatches Grid -->
  <g>
    <!-- Row 1 -->
    <rect x="70" y="180" width="50" height="50" rx="4" fill="#ef4444"/>
    <rect x="130" y="180" width="50" height="50" rx="4" fill="#f59e0b"/>
    <rect x="190" y="180" width="50" height="50" rx="4" fill="#eab308"/>
    <rect x="250" y="180" width="50" height="50" rx="4" fill="#84cc16"/>
    <rect x="310" y="180" width="50" height="50" rx="4" fill="#10b981"/>
    <rect x="370" y="180" width="50" height="50" rx="4" fill="#14b8a6"/>
    <rect x="430" y="180" width="50" height="50" rx="4" fill="#06b6d4"/>
    <rect x="490" y="180" width="50" height="50" rx="4" fill="#0ea5e9"/>
    <rect x="550" y="180" width="50" height="50" rx="4" fill="#3b82f6"/>
    <rect x="610" y="180" width="50" height="50" rx="4" fill="#6366f1"/>

    <!-- Row 2 -->
    <rect x="70" y="240" width="50" height="50" rx="4" fill="#8b5cf6"/>
    <rect x="130" y="240" width="50" height="50" rx="4" fill="#a855f7"/>
    <rect x="190" y="240" width="50" height="50" rx="4" fill="#d946ef"/>
    <rect x="250" y="240" width="50" height="50" rx="4" fill="#ec4899"/>
    <rect x="310" y="240" width="50" height="50" rx="4" fill="#f43f5e"/>
    <rect x="370" y="240" width="50" height="50" rx="4" fill="#64748b"/>
    <rect x="430" y="240" width="50" height="50" rx="4" fill="#475569"/>
    <rect x="490" y="240" width="50" height="50" rx="4" fill="#334155"/>
    <rect x="550" y="240" width="50" height="50" rx="4" fill="#1e293b"/>
    <rect x="610" y="240" width="50" height="50" rx="4" fill="#0f172a"/>
  </g>

  <!-- Color Picker Area -->
  <rect x="700" y="180" width="430" height="280" rx="8" fill="#ffffff" stroke="#e5e7eb" stroke-width="2"/>

  <!-- Color Wheel Placeholder -->
  <circle cx="815" cy="320" r="90" fill="url(#colorWheel)"/>
  <defs>
    <radialGradient id="colorWheel">
      <stop offset="0%" stop-color="#ffffff"/>
      <stop offset="100%" stop-color="#3b82f6"/>
    </radialGradient>
  </defs>

  <!-- Color Values -->
  <rect x="930" y="200" width="180" height="240" rx="4" fill="#f9fafb"/>
  <text x="950" y="230" fill="#6b7280" font-family="monospace" font-size="12">RGB</text>
  <text x="950" y="250" fill="#111827" font-family="monospace" font-size="14" font-weight="600">255, 255, 255</text>

  <text x="950" y="290" fill="#6b7280" font-family="monospace" font-size="12">HEX</text>
  <text x="950" y="310" fill="#111827" font-family="monospace" font-size="14" font-weight="600">#FFFFFF</text>

  <text x="950" y="350" fill="#6b7280" font-family="monospace" font-size="12">HSV</text>
  <text x="950" y="370" fill="#111827" font-family="monospace" font-size="14" font-weight="600">0°, 0%, 100%</text>

  <!-- Placeholder Text -->
  <rect x="400" y="530" width="400" height="120" rx="8" fill="#eff6ff"/>
  <text x="600" y="575" text-anchor="middle" fill="#2563eb" font-family="system-ui" font-size="18" font-weight="600">
    Screenshot Placeholder
  </text>
  <text x="600" y="605" text-anchor="middle" fill="#6b7280" font-family="system-ui" font-size="14">
    Replace with actual ColorClip Pro interface
  </text>
  <text x="600" y="630" text-anchor="middle" fill="#9ca3af" font-family="system-ui" font-size="12">
    See SCREENSHOT_NEEDED.md for details
  </text>
</svg>
